{
	"asset":{
		"version":"2.0",
		"generator":"Created using the official Cinema 4D glTF Exporter. Previous Build: 1.000x275765."
	},
	"scenes":[{
		"nodes":[0]
	}],
	"nodes":[{
		"translation":[0.0,
		0.0,
		0.0],
		"rotation":[0.0,
		0.0,
		0.0,
		-1.0],
		"scale":[0.2,
		0.2,
		-0.2],
		"mesh":0,
		"name":"Disc.Outer.1"
	}],
	"meshes":[{
		"primitives":[{
			"attributes":{
				"POSITION":1,
				"NORMAL":2,
				"TEXCOORD_0":3
			},
			"indices":0,
			"material":0
		}]
	}],
	"accessors":[{
		"bufferView":0,
		"type":"SCALAR",
		"componentType":5123,
		"count":49920,
		"byteOffset":0,
		"min":[0],
		"max":[8846]
	},
	{
		"bufferView":1,
		"type":"VEC3",
		"componentType":5126,
		"count":8847,
		"byteOffset":0,
		"min":[-802.5714111328125,
		-975.0,
		-804.89111328125],
		"max":[1688.63525390625,
		0.0,
		804.89111328125]
	},
	{
		"bufferView":1,
		"type":"VEC3",
		"componentType":5126,
		"count":8847,
		"byteOffset":12,
		"min":[-1.0,
		-0.0000016957318393906463,
		-1.0],
		"max":[0.03165244311094284,
		1.0,
		1.0]
	},
	{
		"bufferView":1,
		"type":"VEC2",
		"componentType":5126,
		"count":8847,
		"byteOffset":24,
		"min":[0.00825481116771698,
		0.00825481116771698],
		"max":[0.8560255169868469,
		0.991745114326477]
	}],
	"bufferViews":[{
		"buffer":0,
		"byteOffset":0,
		"byteLength":99840,
		"target":34963
	},
	{
		"buffer":0,
		"byteOffset":99840,
		"byteLength":283104,
		"target":34962,
		"byteStride":32
	}],
	"buffers":[{
		"uri":"data:application/octet-stream;base64,",
		"byteLength":382944
	}],
	"images":[{
		"uri":"data:image/jpeg;base64,"
	},
	{
		"uri":"data:image/jpeg;base64,"
	},
	{
		"uri":"data:image/jpeg;base64,"
	}],
	"samplers":[{
		"magFilter":9729,
		"minFilter":9729,
		"wrapS":10497,
		"wrapT":10497
	},
	{
		"magFilter":9729,
		"minFilter":9729,
		"wrapS":10497,
		"wrapT":10497
	},
	{
		"magFilter":9729,
		"minFilter":9729,
		"wrapS":10497,
		"wrapT":10497
	}],
	"textures":[{
		"sampler":0,
		"source":0
	},
	{
		"sampler":1,
		"source":1
	},
	{
		"sampler":2,
		"source":2
	}],
	"materials":[{
		"pbrMetallicRoughness":{
			"baseColorTexture":{
				"index":0
			},
			"baseColorFactor":[1.0,
			1.0,
			1.0,
			1.0],
			"metallicRoughnessTexture":{
				"index":1
			},
			"metallicFactor":0.05,
			"roughnessFactor":0.2
		},
		"normalTexture":{
			"index":2,
			"scale":0.05
		},
		"emissiveFactor":[0.0,
		0.0,
		0.0],
		"alphaMode":"OPAQUE",
		"doubleSided":false
	}]
}