{
	"asset":{
		"version":"2.0",
		"generator":"Created using the official Cinema 4D glTF Exporter. Previous Build: 1.000x275765."
	},
	"scenes":[{
		"nodes":[0]
	}],
	"nodes":[{
		"translation":[0.0,
		0.0,
		0.0],
		"rotation":[0.0,
		0.0,
		0.0,
		-1.0],
		"scale":[1.0,
		1.0,
		-1.0],
		"mesh":0,
		"name":"Disc.Outer.1"
	}],
	"meshes":[{
		"primitives":[{
			"attributes":{
				"POSITION":1,
				"NORMAL":2,
				"TEXCOORD_0":3
			},
			"indices":0,
			"material":0
		}]
	}],
	"accessors":[{
		"bufferView":0,
		"type":"SCALAR",
		"componentType":5123,
		"count":49920,
		"byteOffset":0,
		"min":[0],
		"max":[11418]
	},
	{
		"bufferView":1,
		"type":"VEC3",
		"componentType":5126,
		"count":11419,
		"byteOffset":0,
		"min":[-0.8025714159011841,
		-0.9750000238418579,
		-0.8048911094665527],
		"max":[1.688635230064392,
		0.0,
		0.8048911094665527]
	},
	{
		"bufferView":1,
		"type":"VEC3",
		"componentType":5126,
		"count":11419,
		"byteOffset":12,
		"min":[-1.0,
		-0.0000014806965964453412,
		-1.0],
		"max":[0.031652629375457767,
		1.0,
		1.0]
	},
	{
		"bufferView":1,
		"type":"VEC2",
		"componentType":5126,
		"count":11419,
		"byteOffset":24,
		"min":[0.0,
		0.0],
		"max":[1.0,
		1.0]
	}],
	"bufferViews":[{
		"buffer":0,
		"byteOffset":0,
		"byteLength":99840,
		"target":34963
	},
	{
		"buffer":0,
		"byteOffset":99840,
		"byteLength":365408,
		"target":34962,
		"byteStride":32
	}],
	"buffers":[{
		"uri":"data:application/octet-stream;base64,",
		"byteLength":465248
	}],
	"materials":[{
		"pbrMetallicRoughness":{
			"baseColorFactor":[0.20800000000000003,
			0.8,
			0.22773333333333332,
			1.0],
			"metallicFactor":0.0,
			"roughnessFactor":0.5
		},
		"emissiveFactor":[0.0,
		0.0,
		0.0],
		"alphaMode":"OPAQUE",
		"doubleSided":false
	}]
}