{
	"asset":{
		"version":"2.0",
		"generator":"Created using the official Cinema 4D glTF Exporter. Previous Build: 1.000x275765."
	},
	"scenes":[{
		"nodes":[0]
	}],
	"nodes":[{
		"translation":[0.0,
		89.88655853271485,
		5.061820030212402],
		"rotation":[0.0,
		-1.2246468525851679e-16,
		0.0,
		1.0],
		"scale":[1.0,
		1.0,
		-1.0],
		"mesh":0,
		"name":"Figure.1"
	}],
	"meshes":[{
		"primitives":[{
			"attributes":{
				"POSITION":1,
				"NORMAL":2,
				"TEXCOORD_0":3
			},
			"indices":0,
			"material":0
		}]
	}],
	"accessors":[{
		"type":"SCALAR",
		"bufferView":0,
		"componentType":5123,
		"count":16800,
		"byteOffset":0,
		"min":[0],
		"max":[3811]
	},
	{
		"type":"VEC3",
		"bufferView":1,
		"componentType":5126,
		"count":3812,
		"byteOffset":0,
		"min":[-91.49764251708985,
		-89.9801025390625,
		-15.470440864562989],
		"max":[91.49764251708985,
		89.9801025390625,
		15.470440864562989]
	},
	{
		"type":"VEC3",
		"bufferView":1,
		"componentType":5126,
		"count":3812,
		"byteOffset":12,
		"min":[-1.0,
		-1.0,
		-0.9927265644073486],
		"max":[1.0,
		1.0,
		0.9958688616752625]
	},
	{
		"type":"VEC2",
		"bufferView":1,
		"componentType":5126,
		"count":3812,
		"byteOffset":24,
		"min":[0.0,
		0.0],
		"max":[1.0,
		1.0]
	},
	{
		"type":"SCALAR",
		"bufferView":2,
		"componentType":5126,
		"count":76,
		"byteOffset":0,
		"min":[0.0],
		"max":[3.0]
	},
	{
		"type":"VEC4",
		"bufferView":2,
		"componentType":5126,
		"count":76,
		"byteOffset":304,
		"min":[0.0,
		-0.9997806549072266,
		0.0,
		-1.0],
		"max":[0.0,
		8.742277657347586e-8,
		0.0,
		1.0]
	}],
	"bufferViews":[{
		"buffer":0,
		"byteOffset":0,
		"byteLength":33600,
		"target":34963
	},
	{
		"buffer":0,
		"byteOffset":33600,
		"byteLength":121984,
		"target":34962,
		"byteStride":32
	},
	{
		"buffer":1,
		"byteOffset":0,
		"byteLength":1520
	}],
	"buffers":[{
		"uri":"data:application/octet-stream;base64,",
		"byteLength":155584
	},
	{
		"uri":"data:application/octet-stream;base64,",
		"byteLength":1520
	}],
	"materials":[{
		"pbrMetallicRoughness":{
			"baseColorFactor":[0.034499999999999957,
			0.3513250000000001,
			0.6900000000000001,
			1.0],
			"metallicFactor":0.05,
			"roughnessFactor":0.5
		},
		"emissiveFactor":[0.0,
		0.0,
		0.0],
		"alphaMode":"OPAQUE",
		"doubleSided":false
	}],
	"animations":[{
		"samplers":[{
			"input":4,
			"interpolation":"LINEAR",
			"output":5
		}],
		"channels":[{
			"sampler":0,
			"target":{
				"node":0,
				"path":"rotation"
			}
		}]
	}]
}